<svg xmlns:dc="http://purl.org/dc/elements/1.1/" xmlns:cc="http://creativecommons.org/ns#" xmlns:rdf="http://www.w3.org/1999/02/22-rdf-syntax-ns#" xmlns:svg="http://www.w3.org/2000/svg" xmlns="http://www.w3.org/2000/svg" xmlns:xlink="http://www.w3.org/1999/xlink" xmlns:sodipodi="http://sodipodi.sourceforge.net/DTD/sodipodi-0.dtd" xmlns:inkscape="http://www.inkscape.org/namespaces/inkscape" width="286.30328" height="652.67749" id="svg2" sodipodi:version="0.32" inkscape:version="0.47 r22583" sodipodi:docname="striped_000000-000000-000000.svg" inkscape:output_extension="org.inkscape.output.svg.inkscape" version="1.0" inkscape:export-xdpi="15.719862" inkscape:export-ydpi="15.719862">
  <title id="title3671">Scout Neckerchief</title>
  <defs id="defs4">
    <linearGradient id="linearGradient3780">
      <stop id="stop3782" offset="0" style="stop-color:#ffffff;stop-opacity:0;"/>
      <stop style="stop-color:#ffffff;stop-opacity:0.31372549;" offset="0.3910777" id="stop3784"/>
      <stop style="stop-color:#ffffff;stop-opacity:0.627451;" offset="0.5594219" id="stop3786"/>
      <stop id="stop3788" offset="0.77440774" style="stop-color:#ffffff;stop-opacity:0.31372549;"/>
      <stop id="stop3790" offset="1" style="stop-color:#ffffff;stop-opacity:0;"/>
    </linearGradient>
    <linearGradient id="linearGradient3768">
      <stop id="stop3770" offset="0" style="stop-color:#000000;stop-opacity:0;"/>
      <stop style="stop-color:#000000;stop-opacity:0;" offset="0.54909247" id="stop3776"/>
      <stop id="stop3774" offset="1" style="stop-color:#000000;stop-opacity:0.97777778;"/>
    </linearGradient>
    <linearGradient id="linearGradient3641">
      <stop id="stop3643" offset="0" style="stop-color:#000000;stop-opacity:0;"/>
      <stop style="stop-color:#000000;stop-opacity:0;" offset="0.51740217" id="stop3649"/>
      <stop style="stop-color:#000000;stop-opacity:0.68627453;" offset="1" id="stop3645"/>
    </linearGradient>
    <linearGradient id="linearGradient3866">
      <stop style="stop-color:#ffffff;stop-opacity:0;" offset="0" id="stop3868"/>
      <stop id="stop3870" offset="0.21099687" style="stop-color:#ffffff;stop-opacity:0.31372549;"/>
      <stop id="stop3872" offset="0.27506578" style="stop-color:#ffffff;stop-opacity:0.627451;"/>
      <stop style="stop-color:#ffffff;stop-opacity:0.31372549;" offset="0.29509467" id="stop3874"/>
      <stop id="stop3876" offset="0.35770282" style="stop-color:#ffffff;stop-opacity:0;"/>
      <stop style="stop-color:#ffffff;stop-opacity:0;" offset="1" id="stop3878"/>
    </linearGradient>
    <linearGradient id="linearGradient3748">
      <stop style="stop-color:#b4551e;stop-opacity:1;" offset="0" id="stop3750"/>
      <stop style="stop-color:#501616;stop-opacity:1;" offset="1" id="stop3752"/>
    </linearGradient>
    <linearGradient id="linearGradient3726">
      <stop style="stop-color:#ffffff;stop-opacity:0;" offset="0" id="stop3728"/>
      <stop id="stop3742" offset="0.2568936" style="stop-color:#ffffff;stop-opacity:0.31372549;"/>
      <stop id="stop3736" offset="0.28189507" style="stop-color:#ffffff;stop-opacity:0.627451;"/>
      <stop style="stop-color:#ffffff;stop-opacity:0.31372549;" offset="0.36269704" id="stop3740"/>
      <stop style="stop-color:#ffffff;stop-opacity:0;" offset="1" id="stop3730"/>
    </linearGradient>
    <linearGradient id="linearGradient3709">
      <stop style="stop-color:#ffffff;stop-opacity:0;" offset="0" id="stop3711"/>
      <stop id="stop3717" offset="1" style="stop-color:#ffffff;stop-opacity:0.68627453;"/>
    </linearGradient>
    <linearGradient id="linearGradient3689">
      <stop style="stop-color:#ffffff;stop-opacity:0;" offset="0" id="stop3691"/>
      <stop id="stop3699" offset="0.28966019" style="stop-color:#ffffff;stop-opacity:0.50980395;"/>
      <stop style="stop-color:#ffffff;stop-opacity:0;" offset="1" id="stop3693"/>
    </linearGradient>
    <radialGradient inkscape:collect="always" xlink:href="#linearGradient3780" id="radialGradient3681" cx="365.42068" cy="528.42627" fx="365.42068" fy="528.42627" r="18.887081" gradientTransform="matrix(3.2926915,0.01396619,-0.07983457,18.821914,-788.32928,-9434.16)" gradientUnits="userSpaceOnUse"/>
    <linearGradient inkscape:collect="always" xlink:href="#linearGradient3689" id="linearGradient3697" x1="367.46133" y1="529.82025" x2="403.11792" y2="529.82025" gradientUnits="userSpaceOnUse"/>
    <linearGradient inkscape:collect="always" xlink:href="#linearGradient3709" id="linearGradient3715" x1="67.5" y1="98.21875" x2="216.71875" y2="98.21875" gradientUnits="userSpaceOnUse"/>
    <radialGradient inkscape:collect="always" xlink:href="#linearGradient3726" id="radialGradient3732" cx="345.5647" cy="238.45224" fx="345.5647" fy="238.45224" r="143.15164" gradientTransform="matrix(2.7524182,-2.5378939,3.2670647,3.5432222,-1317.9779,256.51191)" gradientUnits="userSpaceOnUse"/>
    <radialGradient inkscape:collect="always" xlink:href="#linearGradient3748" id="radialGradient3754" cx="336.61087" cy="349.34039" fx="336.61087" fy="349.34039" r="32.362589" gradientTransform="matrix(2.0174838,-0.00781592,0.00482002,1.2133188,-344.07999,-70.416861)" gradientUnits="userSpaceOnUse"/>
    <radialGradient inkscape:collect="always" xlink:href="#linearGradient3866" id="radialGradient3864" gradientUnits="userSpaceOnUse" gradientTransform="matrix(1.6965875,1.3258142,-2.5504412,3.2636921,479.01247,-1128.9002)" cx="354.24344" cy="282.9938" fx="354.24344" fy="282.9938" r="143.15164"/>
    <radialGradient inkscape:collect="always" xlink:href="#linearGradient3641" id="radialGradient3651" cx="142.10938" cy="85.089386" fx="142.10938" fy="85.089386" r="74.609375" gradientTransform="matrix(1.6444742,-0.0080594,0.0037247,0.76000144,-91.902759,26.210732)" gradientUnits="userSpaceOnUse"/>
    <linearGradient inkscape:collect="always" xlink:href="#linearGradient3768" id="linearGradient3766" x1="341.73734" y1="529.70074" x2="375.51151" y2="529.70074" gradientUnits="userSpaceOnUse"/>
  </defs>
  <sodipodi:namedview id="base" pagecolor="#ffffff" bordercolor="#666666" borderopacity="1.0" inkscape:pageopacity="0.0" inkscape:pageshadow="2" inkscape:zoom="1.4142136" inkscape:cx="209.46962" inkscape:cy="312.41934" inkscape:document-units="px" inkscape:current-layer="layer1" showgrid="true" showguides="true" inkscape:window-width="1280" inkscape:window-height="727" inkscape:window-x="0" inkscape:window-y="24" inkscape:window-maximized="1" inkscape:snap-grids="false" inkscape:snap-to-guides="false" inkscape:snap-nodes="false" inkscape:snap-global="false">
    <inkscape:grid type="xygrid" id="grid2834" empspacing="5" visible="true" enabled="true" snapvisiblegridlinesonly="true"/>
  </sodipodi:namedview>
  <metadata id="metadata7">
    <rdf:RDF>
      <cc:Work rdf:about="">
        <dc:format>image/svg+xml</dc:format>
        <dc:type rdf:resource="http://purl.org/dc/dcmitype/StillImage"/>
        <dc:title>Scout Neckerchief</dc:title>
        <dc:creator>
          <cc:Agent>
            <dc:title>Jeoire de Chassey</dc:title>
          </cc:Agent>
        </dc:creator>
        <cc:license rdf:resource="http://creativecommons.org/licenses/by-sa/3.0/"/>
        <dc:description>Scout Neckerchief generated by NeckGen - http://www.scoutwiki.org/neckgen/</dc:description>
      </cc:Work>
      <cc:License rdf:about="http://creativecommons.org/licenses/by-sa/3.0/">
        <cc:permits rdf:resource="http://creativecommons.org/ns#Reproduction"/>
        <cc:permits rdf:resource="http://creativecommons.org/ns#Distribution"/>
        <cc:requires rdf:resource="http://creativecommons.org/ns#Notice"/>
        <cc:requires rdf:resource="http://creativecommons.org/ns#Attribution"/>
        <cc:permits rdf:resource="http://creativecommons.org/ns#DerivativeWorks"/>
        <cc:requires rdf:resource="http://creativecommons.org/ns#ShareAlike"/>
      </cc:License>
    </rdf:RDF>
  </metadata>
  <g inkscape:label="Variable" inkscape:groupmode="layer" id="layer1" transform="translate(-224.5,-49.616645)" style="display:inline">
    <path style="fill:#000000;fill-opacity:1;stroke:none" d="M 142.96875,0 C 101.24479,0 59.64033,13.864372 29.90625,47.71875 0.17216,81.573125 -7.02196,138.99594 6.65625,180.1875 c 17.257621,51.97085 61.071629,118.56984 116.9375,146.0625 -10.4866,25.12172 -20.26328,81.00815 -14.78125,162.3125 8.69817,129.00285 22.87874,160.79374 29.875,160.40625 1.88987,-0.10467 4.10134,-12.76325 4.28125,-20.3125 -0.0246,10.80293 -0.33156,22.36542 3.75,23.9375 4.92797,1.89809 16.71382,-27.74178 30.28125,-163.03125 5.14958,-51.34979 -2.80839,-129.20058 -13.3125,-163.96875 55.22514,-27.89113 98.47454,-93.85224 115.59375,-145.40625 13.67821,-41.19156 8.07539,-96.802565 -23.25,-132.46875 C 227.88847,15.676184 184.69271,0 142.96875,0 z M 67.4375,70.90625 142.96875,146.4375 216.75,72.65625 c 11.80152,10.120751 20.54468,23.81056 25.5625,41.46875 12.72666,44.7863 -0.86345,73.65595 -20.9375,106 -28.78221,46.37496 -55.60066,73.46117 -78.3125,90.3125 C 120.3507,293.58617 93.43841,266.49996 64.65625,220.125 44.58224,187.78095 29.36938,154.06456 40.71875,114.125 46.2135,94.788436 55.365173,80.796361 67.4375,70.90625 z" id="rect3705" transform="translate(224.5,49.616645)" sodipodi:nodetypes="csscsscsscssccccsscssc"/>
    <path style="fill:#000000;fill-opacity:1;stroke:none;display:inline" d="M 226.34375 22.8125 L 226.375 22.84375 C 226.3628 22.83625 226.35585 22.82 226.34375 22.8125 z M 230.71875 25.625 L 215.65625 71.8125 C 217.2387 73.047432 218.44054 74.194668 219.75 75.375 L 235 28.59375 C 233.59306 27.573081 232.16299 26.590498 230.71875 25.625 z M 51 28.3125 C 49.575531 29.367662 48.172116 30.44212 46.78125 31.5625 L 61.21875 76.65625 C 62.523383 75.305371 63.860476 74.013162 65.25 72.78125 L 51 28.3125 z M 85 60.15625 C 83.370533 60.887667 81.781291 61.645362 80.21875 62.46875 L 142.96875 125.21875 L 204.28125 63.90625 C 202.76958 63.044188 201.2364 62.216193 199.65625 61.4375 L 142.96875 118.125 L 85 60.15625 z M 278.625 87.625 L 242.125 113.53125 C 242.1837 113.73194 242.25505 113.92284 242.3125 114.125 C 242.7497 115.66356 243.15488 117.18573 243.53125 118.6875 L 280.21875 92.59375 C 279.72041 90.927527 279.18556 89.269865 278.625 87.625 z M 6.75 90.84375 C 6.2313612 92.532529 5.7398138 94.225524 5.28125 95.9375 L 39.21875 120.125 C 39.599515 118.3997 40.01772 116.65494 40.5 114.90625 L 6.75 90.84375 z M 285.0625 154.46875 L 246.75 157.28125 C 246.57338 158.99063 246.38731 160.67292 246.125 162.34375 L 284.3125 159.53125 C 284.58754 157.86102 284.84432 156.16198 285.0625 154.46875 z M 1.125 154.90625 C 1.3310954 156.60874 1.5801235 158.29203 1.84375 159.96875 L 39.15625 162.625 C 38.798439 160.93424 38.464571 159.2422 38.1875 157.53125 L 1.125 154.90625 z M 280.90625 174.84375 L 280.90625 174.875 C 280.90925 174.865 280.90325 174.85335 280.90625 174.84375 z M 17.4375 207.0625 C 18.228338 208.76519 19.038564 210.47584 19.875 212.1875 L 61.0625 214.21875 C 60.051025 212.51232 59.068544 210.77872 58.09375 209.0625 L 17.4375 207.0625 z M 268.53125 207.15625 L 228.03125 209 C 227.05484 210.69992 226.05463 212.41501 225.03125 214.125 L 266.0625 212.28125 C 266.89871 210.56845 267.74031 208.8599 268.53125 207.15625 z M 45.75 255.71875 C 46.941451 257.39153 48.146257 259.06638 49.375 260.71875 L 93.03125 260.71875 C 91.741106 259.09 90.458309 257.4215 89.15625 255.71875 L 45.75 255.71875 z M 196.90625 255.71875 C 195.60598 257.4215 194.31947 259.09 193.03125 260.71875 L 236.5625 260.71875 C 237.79128 259.06632 238.99604 257.39152 240.1875 255.71875 L 196.90625 255.71875 z M 159.3125 297.125 C 159.3015 297.135 159.29205 297.14655 159.28125 297.15625 L 188.21875 299.21875 L 159.3125 297.125 z M 131.59375 301.28125 L 90.25 304.3125 C 92.155829 305.8895 94.083144 307.44409 96.03125 308.9375 L 137.1875 305.90625 C 135.34598 304.4367 133.48361 302.8911 131.59375 301.28125 z M 153.9375 301.78125 C 152.04853 303.38124 150.1802 304.92485 148.3125 306.40625 L 189.4375 309.34375 C 191.39175 307.85625 193.30684 306.29053 195.21875 304.71875 L 153.9375 301.78125 z M 110.96875 380.125 C 110.7019 382.19857 110.46142 384.30674 110.21875 386.46875 L 142.96875 419.21875 L 174.8125 387.375 C 174.57589 385.22983 174.34852 383.10513 174.09375 381 L 142.96875 412.125 L 110.96875 380.125 z M 107.28125 448.4375 C 107.30114 450.80126 107.32739 453.20509 107.375 455.625 L 142.96875 491.21875 L 178.59375 455.59375 C 178.60416 453.25897 178.5855 450.90023 178.5625 448.53125 L 142.96875 484.125 L 107.28125 448.4375 z M 111.625 524.78125 C 111.8568 527.41537 112.07606 530.03145 112.3125 532.5625 L 142.96875 563.21875 L 172.1875 534 C 172.49606 531.38096 172.81384 528.69666 173.125 525.96875 L 142.96875 556.125 L 111.625 524.78125 z M 121.4375 602.84375 C 122.01243 605.96516 122.58161 608.90628 123.15625 611.65625 L 142.84375 631.34375 C 142.91036 630.4059 142.94882 629.49268 142.96875 628.65625 C 142.9666 629.59837 142.97209 630.52221 142.96875 631.46875 L 160.375 614.0625 C 160.91124 611.33501 161.44502 608.42693 162 605.34375 L 142.96875 624.375 L 121.4375 602.84375 z " id="path2901" transform="translate(224.5,49.616645)"/>
    <path style="fill:#000000;fill-opacity:1;stroke:none;display:inline" d="M 239.21875 31.8125 L 223.6875 79.4375 C 224.99829 80.888058 226.259 82.40292 227.46875 83.96875 L 243.375 35.21875 C 242.01078 34.049208 240.62807 32.923088 239.21875 31.8125 z M 42.65625 35.0625 C 41.287446 36.259703 39.926322 37.485659 38.59375 38.75 L 53.6875 85.875 C 54.868679 84.174971 56.09403 82.556825 57.375 81 L 42.65625 35.0625 z M 75.71875 65.03125 C 74.262659 65.924085 72.857551 66.888475 71.46875 67.875 L 142.96875 139.375 L 212.84375 69.5 C 211.48935 68.482935 210.08077 67.527554 208.65625 66.59375 L 142.96875 132.28125 L 75.71875 65.03125 z M 281.65625 97.75 L 244.71875 123.96875 C 245.10199 125.79847 245.45737 127.59733 245.75 129.375 L 282.90625 102.96875 C 282.52603 101.22308 282.10206 99.479472 281.65625 97.75 z M 3.96875 101.125 C 3.560118 102.90294 3.2201479 104.70458 2.875 106.5 L 37.40625 131.09375 C 37.601852 129.25581 37.881936 127.39525 38.1875 125.53125 L 3.96875 101.125 z M 283.375 164.625 L 245.15625 167.46875 C 244.79346 169.18464 244.38362 170.87944 243.9375 172.5625 L 282.25 169.75 C 282.65992 168.05694 283.02562 166.3514 283.375 164.625 z M 2.71875 165.03125 C 3.0548258 166.74825 3.4443344 168.44459 3.84375 170.125 L 41.78125 172.8125 C 41.259988 171.11131 40.789698 169.40609 40.34375 167.6875 L 2.71875 165.03125 z M 280.90625 174.84375 L 280.90625 174.875 C 280.90925 174.865 280.90325 174.85335 280.90625 174.84375 z M 22.4375 217.3125 C 23.316794 219.02745 24.202508 220.75056 25.125 222.46875 L 67.4375 224.5625 C 66.509416 223.10091 65.591326 221.63163 64.65625 220.125 C 64.499863 219.87302 64.343123 219.62718 64.1875 219.375 L 22.4375 217.3125 z M 263.46875 217.40625 L 221.90625 219.28125 C 221.73043 219.5658 221.55189 219.83998 221.375 220.125 C 220.4692 221.58446 219.56002 223.02293 218.65625 224.4375 L 260.78125 222.53125 C 261.7 220.8192 262.59319 219.11533 263.46875 217.40625 z M 53.1875 265.71875 C 54.494713 267.39965 55.84173 269.06711 57.1875 270.71875 L 101.21875 270.71875 C 99.837993 269.10433 98.45818 267.41628 97.0625 265.71875 L 53.1875 265.71875 z M 189 265.71875 C 187.60774 267.41477 186.25225 269.1057 184.875 270.71875 L 228.75 270.71875 C 230.09576 269.06711 231.44276 267.39971 232.75 265.71875 L 189 265.71875 z M 159.3125 297.125 C 159.3015 297.135 159.29195 297.14655 159.28125 297.15625 L 159.3125 297.125 z M 121.5 310.875 L 102.28125 313.5 C 104.49127 315.05235 106.70978 316.56547 108.96875 318 L 176.3125 318.40625 C 178.61658 316.95847 180.90259 315.44558 183.15625 313.875 L 164.03125 312.53125 L 121.5 310.875 z M 122.46875 333.71875 L 119.28125 337.625 L 142.96875 361.3125 L 166.9375 337.34375 L 162.875 334.3125 L 142.96875 354.21875 L 122.46875 333.71875 z M 109.53125 392.84375 C 109.32435 394.97896 109.15064 397.16107 108.96875 399.375 L 142.96875 433.375 L 176.09375 400.25 C 175.89915 398.08136 175.6829 395.92413 175.46875 393.78125 L 142.96875 426.28125 L 109.53125 392.84375 z M 178.53125 462.71875 L 142.96875 498.28125 L 107.5625 462.875 C 107.63683 465.29581 107.70973 467.74493 107.8125 470.21875 L 142.96875 505.375 L 178.3125 470.03125 C 178.4041 467.62155 178.4816 465.18866 178.53125 462.71875 z M 113.09375 540.40625 C 113.36103 543.09439 113.60291 545.71525 113.875 548.28125 L 142.96875 577.375 L 170.21875 550.125 C 170.55256 547.48611 170.88143 544.79773 171.21875 542.03125 L 142.96875 570.28125 L 113.09375 540.40625 z M 125.1875 620.71875 C 126.08047 624.37321 126.9731 627.61602 127.84375 630.46875 L 141 643.625 C 141.41947 641.84252 141.81187 639.79942 142.125 637.65625 L 125.1875 620.71875 z M 158.53125 622.9375 L 143 638.46875 C 143.05653 640.86425 143.19588 643.14352 143.4375 645.125 L 156.3125 632.25 C 157.02603 629.47632 157.77015 626.40259 158.53125 622.9375 z " id="rect2883" transform="translate(224.5,49.616645)"/>
  </g>
  <g inkscape:groupmode="layer" id="layer3" inkscape:label="Permanent" style="display:inline" sodipodi:insensitive="true">
    <path id="path2992" d="M 333.30999,538.18315 C 322.91459,384.0084 367.45777,321.17031 367.46761,386.36122 l 0.0439,290.89791 c 0.001,7.37621 -2.33729,21.20567 -4.30845,21.31484 -6.99626,0.38749 -21.19491,-31.38797 -29.89308,-160.39082 z" style="fill:url(#linearGradient3766);fill-opacity:1;stroke:none;display:inline" sodipodi:nodetypes="cssss" transform="translate(-224.5,-49.616645)"/>
    <path sodipodi:nodetypes="cssss" style="fill:url(#radialGradient3681);fill-opacity:1;stroke:none;display:inline" d="M 333.30999,538.18315 C 322.91459,384.0084 367.45777,321.17031 367.46761,386.36122 l 0.0439,290.89791 c 0.001,7.37621 -2.33729,21.20567 -4.30845,21.31484 -6.99626,0.38749 -21.19491,-31.38797 -29.89308,-160.39082 z" id="path3673" transform="translate(-224.5,-49.616645)"/>
    <path style="fill:url(#linearGradient3715);fill-opacity:1;stroke:none;display:inline" d="m 216.71875,72.6875 c -1.2925,-1.108263 -2.57222,-2.227151 -3.9375,-3.25 -1.97622,-1.480558 -4.03186,-2.85213 -6.15625,-4.15625 -2.12439,-1.30412 -4.32633,-2.525585 -6.59375,-3.65625 -2.26742,-1.130665 -4.59468,-2.196057 -7,-3.15625 -2.40532,-0.960193 -4.86815,-1.832296 -7.40625,-2.625 -2.5381,-0.792704 -5.14676,-1.496803 -7.8125,-2.125 -2.66574,-0.628197 -5.39925,-1.158326 -8.1875,-1.625 -2.78825,-0.466674 -5.62562,-0.879367 -8.53125,-1.1875 C 155.28249,50.289984 149.21874,50 142.96875,50 c -6.24999,0 -12.30049,0.225546 -18.15625,0.71875 -5.85576,0.493204 -11.49234,1.245431 -16.90625,2.3125 -2.70696,0.533534 -5.38118,1.151626 -7.96875,1.84375 -2.587567,0.692124 -5.100274,1.451703 -7.5625,2.3125 -2.462226,0.860797 -4.856566,1.835448 -7.1875,2.875 -2.330934,1.039552 -4.587559,2.14661 -6.78125,3.375 -2.193691,1.22839 -4.324503,2.57269 -6.375,4 -1.569114,1.092229 -3.049065,2.317325 -4.53125,3.53125 l 75.46875,75.46875 73.75,-73.75 z" id="path3707" transform="translate(-4.0260751e-6,0)"/>
    <path transform="translate(-224.5,-49.616645)" id="path3687" d="m 367.52164,380.36121 -0.0439,296.89792 c -0.002,11.07655 -0.47021,23.33229 3.73742,24.95293 4.92797,1.89809 16.72511,-27.73944 30.29254,-163.02891 8.4701,-84.46077 -18.48776,-240.64891 -33.98606,-158.82194 z" style="fill:url(#linearGradient3697);fill-opacity:1;stroke:none;display:inline" sodipodi:nodetypes="csssc"/>
    <path transform="translate(-224.5,-49.616645)" sodipodi:nodetypes="czscsssczscssz" id="path3723" d="m 367.47774,49.616645 c -41.72396,0 -83.32842,13.864372 -113.0625,47.71875 -29.73409,33.854375 -36.92821,91.277185 -23.25,132.468745 19.20704,57.84147 71.3125,133.8125 136.3125,153.8125 65,-20 117.10546,-95.97103 136.3125,-153.8125 13.67821,-41.19156 8.07539,-96.80256 -23.25,-132.468745 -28.14278,-32.042566 -71.33854,-47.71875 -113.0625,-47.71875 z m 0,50 c 49.99995,0 86.61704,19.338695 99.3437,64.124995 12.72666,44.7863 -0.86345,73.65595 -20.9375,106 -28.78221,46.37496 -55.60066,73.46117 -78.3125,90.3125 -22.7118,-16.85133 -49.62409,-43.93754 -78.40625,-90.3125 -20.07401,-32.34405 -35.28687,-66.06044 -23.9375,-106 14.10391,-49.63304 52.2501,-64.124995 102.25005,-64.124995 z" style="fill:url(#radialGradient3732);fill-opacity:1;stroke:none;display:inline"/>
    <path style="fill:url(#radialGradient3864);fill-opacity:1;stroke:none;display:inline" d="m 367.47774,99.616645 c 49.99995,0 86.61704,19.338695 99.3437,64.124995 12.72666,44.7863 -0.86345,73.65595 -20.9375,106 -28.78221,46.37496 -55.60066,73.46117 -78.3125,90.3125 l -0.0937,23.5625 c 65,-20 117.10546,-95.97103 136.3125,-153.8125 13.67821,-41.19156 8.07539,-96.80256 -23.25,-132.468745 -28.14278,-32.042566 -71.33854,-47.71875 -113.0625,-47.71875 l 0,50 z" id="path3862" sodipodi:nodetypes="czsccsscc" transform="translate(-224.5,-49.616645)"/>
    <path transform="translate(-4.0260751e-6,0)" id="path2867" d="m 216.71875,72.6875 c -1.2925,-1.108263 -2.57222,-2.227151 -3.9375,-3.25 -1.97622,-1.480558 -4.03186,-2.85213 -6.15625,-4.15625 -2.12439,-1.30412 -4.32633,-2.525585 -6.59375,-3.65625 -2.26742,-1.130665 -4.59468,-2.196057 -7,-3.15625 -2.40532,-0.960193 -4.86815,-1.832296 -7.40625,-2.625 -2.5381,-0.792704 -5.14676,-1.496803 -7.8125,-2.125 -2.66574,-0.628197 -5.39925,-1.158326 -8.1875,-1.625 -2.78825,-0.466674 -5.62562,-0.879367 -8.53125,-1.1875 C 155.28249,50.289984 149.21874,50 142.96875,50 c -6.24999,0 -12.30049,0.225546 -18.15625,0.71875 -5.85576,0.493204 -11.49234,1.245431 -16.90625,2.3125 -2.70696,0.533534 -5.38118,1.151626 -7.96875,1.84375 -2.587567,0.692124 -5.100274,1.451703 -7.5625,2.3125 -2.462226,0.860797 -4.856566,1.835448 -7.1875,2.875 -2.330934,1.039552 -4.587559,2.14661 -6.78125,3.375 -2.193691,1.22839 -4.324503,2.57269 -6.375,4 -1.569114,1.092229 -3.049065,2.317325 -4.53125,3.53125 L 88.78426,92.25301 196.48973,92.916516 216.71875,72.6875 z" style="fill:url(#radialGradient3651);fill-opacity:1;stroke:none;display:inline" sodipodi:nodetypes="csssssssssssssssscccc"/>
  </g>
</svg>