<?xml version="1.0" encoding="UTF-8"?>
<!DOCTYPE svg PUBLIC "-//W3C//DTD SVG 1.1//EN" "http://www.w3.org/Graphics/SVG/1.1/DTD/svg11.dtd">
<svg xmlns="http://www.w3.org/2000/svg" version="1.1" width="512px" height="512px" style="shape-rendering:geometricPrecision; text-rendering:geometricPrecision; image-rendering:optimizeQuality; fill-rule:evenodd; clip-rule:evenodd" xmlns:xlink="http://www.w3.org/1999/xlink">
<g><path style="opacity:0.946" fill="#ffffff" d="M 82.5,31.5 C 101.503,31.3334 120.503,31.5001 139.5,32C 141.333,32.5 142.5,33.6667 143,35.5C 143.667,38.1667 143.667,40.8333 143,43.5C 142.5,45.3333 141.333,46.5 139.5,47C 120.48,47.1974 101.48,47.864 82.5,49C 64.2242,51.9426 53.0575,62.4426 49,80.5C 47.7568,100.134 47.0902,119.8 47,139.5C 46.5,141.333 45.3333,142.5 43.5,143C 36.3419,145.18 32.1753,142.68 31,135.5C 30.3333,119.5 30.3333,103.5 31,87.5C 33.8243,55.5133 50.991,36.8466 82.5,31.5 Z"/></g>
<g><path style="opacity:0.946" fill="#ffffff" d="M 371.5,31.5 C 392.54,31.0708 413.54,31.5708 434.5,33C 459.118,38.6179 473.951,53.7845 479,78.5C 479.667,98.8333 479.667,119.167 479,139.5C 478.626,140.416 478.126,141.25 477.5,142C 474.298,143.483 470.964,143.817 467.5,143C 465.667,142.5 464.5,141.333 464,139.5C 462.716,119.885 462.049,100.218 462,80.5C 457.943,62.4426 446.776,51.9426 428.5,49C 409.52,47.864 390.52,47.1974 371.5,47C 368.484,45.4714 367.151,42.9714 367.5,39.5C 367.282,35.9342 368.616,33.2675 371.5,31.5 Z"/></g>
<g><path style="opacity:0.972" fill="#ffffff" d="M 251.5,95.5 C 254.187,95.3359 256.854,95.5026 259.5,96C 303.675,119.588 348.009,142.922 392.5,166C 395.211,167.261 397.378,169.094 399,171.5C 399.992,228.249 399.658,284.916 398,341.5C 351.913,366.127 305.746,390.627 259.5,415C 256.833,415.667 254.167,415.667 251.5,415C 205.254,390.627 159.087,366.127 113,341.5C 112.027,339.608 111.36,337.608 111,335.5C 110.333,282.167 110.333,228.833 111,175.5C 111.36,173.392 112.027,171.392 113,169.5C 159.308,144.932 205.474,120.265 251.5,95.5 Z M 127.5,189.5 C 167.211,210.105 206.711,231.105 246,252.5C 246.833,299.17 246.667,345.837 245.5,392.5C 206.658,371.579 167.658,350.912 128.5,330.5C 127.5,283.505 127.167,236.505 127.5,189.5 Z M 382.5,189.5 C 383.831,236.335 383.831,283.335 382.5,330.5C 343.079,351.627 303.579,372.627 264,393.5C 263.167,346.496 263.333,299.496 264.5,252.5C 304.213,231.98 343.546,210.98 382.5,189.5 Z"/></g>
<g><path style="opacity:0.946" fill="#ffffff" d="M 35.5,367.5 C 38.1873,367.336 40.854,367.503 43.5,368C 45.3333,368.5 46.5,369.667 47,371.5C 47.0902,391.2 47.7568,410.866 49,430.5C 53.0575,448.557 64.2242,459.057 82.5,462C 101.479,463.155 120.479,463.822 139.5,464C 141.333,464.5 142.5,465.667 143,467.5C 143.929,471.244 143.429,474.744 141.5,478C 131.428,479.144 121.261,479.644 111,479.5C 91.7659,482.022 73.5992,478.855 56.5,470C 40.5987,458.707 32.0987,443.207 31,423.5C 30.3333,407.5 30.3333,391.5 31,375.5C 31.2463,371.995 32.7463,369.329 35.5,367.5 Z"/></g>
<g><path style="opacity:0.946" fill="#ffffff" d="M 467.5,367.5 C 470.187,367.336 472.854,367.503 475.5,368C 477.333,368.5 478.5,369.667 479,371.5C 479.167,381.667 479.333,391.833 479.5,402C 483.258,423.563 478.758,443.063 466,460.5C 457.216,469.311 446.716,475.144 434.5,478C 423.04,479.096 411.54,479.596 400,479.5C 389.739,479.644 379.572,479.144 369.5,478C 367.571,474.744 367.071,471.244 368,467.5C 368.5,465.667 369.667,464.5 371.5,464C 390.521,463.822 409.521,463.155 428.5,462C 446.776,459.057 457.943,448.557 462,430.5C 462.333,412.167 462.667,393.833 463,375.5C 463.246,371.995 464.746,369.329 467.5,367.5 Z"/></g>
</svg>
